<svg width="73" height="12" viewBox="0 0 73 12" fill="none" xmlns="http://www.w3.org/2000/svg">
<path d="M9.70345 7.20495C9.54557 7.35795 9.47303 7.57922 9.509 7.79622L10.0509 10.7952C10.0966 11.0494 9.98933 11.3067 9.77659 11.4536C9.56812 11.6059 9.29078 11.6242 9.06341 11.5023L6.36369 10.0942C6.26982 10.0443 6.16558 10.0174 6.05891 10.0144H5.89372C5.83642 10.0229 5.78034 10.0412 5.72914 10.0693L3.02881 11.484C2.89532 11.5511 2.74415 11.5749 2.59602 11.5511C2.23517 11.4828 1.99439 11.139 2.05352 10.7763L2.59602 7.77733C2.63199 7.5585 2.55945 7.33601 2.40158 7.18057L0.200468 5.04712C0.0163823 4.86852 -0.0476211 4.60032 0.0364977 4.35833C0.118178 4.11694 0.326646 3.94078 0.578393 3.90116L3.60789 3.46167C3.8383 3.4379 4.04067 3.2977 4.1443 3.09045L5.47922 0.353543C5.51092 0.292587 5.55176 0.236508 5.60113 0.188962L5.65599 0.146293C5.68464 0.114597 5.71756 0.0883856 5.75413 0.0670512L5.82057 0.0426689L5.9242 0H6.18082C6.41002 0.0237727 6.61178 0.160923 6.71723 0.365734L8.06984 3.09045C8.16737 3.28977 8.35694 3.42814 8.57577 3.46167L11.6053 3.90116C11.8613 3.93773 12.0752 4.1145 12.16 4.35833C12.2398 4.60276 12.1709 4.87096 11.9832 5.04712L9.70345 7.20495Z" fill="#05A42C"/>
<path d="M24.9054 7.20495C24.7475 7.35795 24.6749 7.57922 24.7109 7.79622L25.2528 10.7952C25.2985 11.0494 25.1912 11.3067 24.9785 11.4536C24.77 11.6059 24.4927 11.6242 24.2653 11.5023L21.5656 10.0942C21.4717 10.0443 21.3675 10.0174 21.2608 10.0144H21.0956C21.0383 10.0229 20.9822 10.0412 20.931 10.0693L18.2307 11.484C18.0972 11.5511 17.946 11.5749 17.7979 11.5511C17.4371 11.4828 17.1963 11.139 17.2554 10.7763L17.7979 7.77733C17.8339 7.5585 17.7614 7.33601 17.6035 7.18057L15.4024 5.04712C15.2183 4.86852 15.1543 4.60032 15.2384 4.35833C15.3201 4.11694 15.5286 3.94078 15.7803 3.90116L18.8098 3.46167C19.0402 3.4379 19.2426 3.2977 19.3462 3.09045L20.6811 0.353543C20.7128 0.292587 20.7537 0.236508 20.803 0.188962L20.8579 0.146293C20.8865 0.114597 20.9195 0.0883856 20.956 0.0670512L21.0225 0.0426689L21.1261 0H21.3827C21.6119 0.0237727 21.8137 0.160923 21.9191 0.365734L23.2717 3.09045C23.3693 3.28977 23.5588 3.42814 23.7777 3.46167L26.8072 3.90116C27.0632 3.93773 27.2771 4.1145 27.3619 4.35833C27.4417 4.60276 27.3728 4.87096 27.1851 5.04712L24.9054 7.20495Z" fill="#05A42C"/>
<path d="M40.107 7.20495C39.9491 7.35795 39.8766 7.57922 39.9126 7.79622L40.4545 10.7952C40.5002 11.0494 40.3929 11.3067 40.1802 11.4536C39.9717 11.6059 39.6943 11.6242 39.467 11.5023L36.7673 10.0942C36.6734 10.0443 36.5691 10.0174 36.4625 10.0144H36.2973C36.24 10.0229 36.1839 10.0412 36.1327 10.0693L33.4324 11.484C33.2989 11.5511 33.1477 11.5749 32.9996 11.5511C32.6387 11.4828 32.398 11.139 32.4571 10.7763L32.9996 7.77733C33.0356 7.5585 32.963 7.33601 32.8051 7.18057L30.604 5.04712C30.4199 4.86852 30.3559 4.60032 30.4401 4.35833C30.5217 4.11694 30.7302 3.94078 30.982 3.90116L34.0115 3.46167C34.2419 3.4379 34.4442 3.2977 34.5479 3.09045L35.8828 0.353543C35.9145 0.292587 35.9553 0.236508 36.0047 0.188962L36.0596 0.146293C36.0882 0.114597 36.1211 0.0883856 36.1577 0.0670512L36.2241 0.0426689L36.3278 0H36.5844C36.8136 0.0237727 37.0153 0.160923 37.1208 0.365734L38.4734 3.09045C38.5709 3.28977 38.7605 3.42814 38.9793 3.46167L42.0088 3.90116C42.2648 3.93773 42.4788 4.1145 42.5635 4.35833C42.6434 4.60276 42.5745 4.87096 42.3868 5.04712L40.107 7.20495Z" fill="#05A42C"/>
<path d="M55.3089 7.20495C55.151 7.35795 55.0785 7.57922 55.1145 7.79622L55.6564 10.7952C55.7021 11.0494 55.5948 11.3067 55.3821 11.4536C55.1736 11.6059 54.8962 11.6242 54.6689 11.5023L51.9692 10.0942C51.8753 10.0443 51.7711 10.0174 51.6644 10.0144H51.4992C51.4419 10.0229 51.3858 10.0412 51.3346 10.0693L48.6343 11.484C48.5008 11.5511 48.3496 11.5749 48.2015 11.5511C47.8406 11.4828 47.5999 11.139 47.659 10.7763L48.2015 7.77733C48.2375 7.5585 48.1649 7.33601 48.007 7.18057L45.8059 5.04712C45.6219 4.86852 45.5578 4.60032 45.642 4.35833C45.7236 4.11694 45.9321 3.94078 46.1839 3.90116L49.2134 3.46167C49.4438 3.4379 49.6461 3.2977 49.7498 3.09045L51.0847 0.353543C51.1164 0.292587 51.1572 0.236508 51.2066 0.188962L51.2615 0.146293C51.2901 0.114597 51.323 0.0883856 51.3596 0.0670512L51.426 0.0426689L51.5297 0H51.7863C52.0155 0.0237727 52.2172 0.160923 52.3227 0.365734L53.6753 3.09045C53.7728 3.28977 53.9624 3.42814 54.1812 3.46167L57.2107 3.90116C57.4667 3.93773 57.6807 4.1145 57.7654 4.35833C57.8453 4.60276 57.7764 4.87096 57.5887 5.04712L55.3089 7.20495Z" fill="#05A42C"/>
<path d="M70.5108 7.20495C70.3529 7.35795 70.2804 7.57922 70.3164 7.79622L70.8583 10.7952C70.904 11.0494 70.7967 11.3067 70.584 11.4536C70.3755 11.6059 70.0982 11.6242 69.8708 11.5023L67.1711 10.0942C67.0772 10.0443 66.973 10.0174 66.8663 10.0144H66.7011C66.6438 10.0229 66.5877 10.0412 66.5365 10.0693L63.8362 11.484C63.7027 11.5511 63.5515 11.5749 63.4034 11.5511C63.0425 11.4828 62.8018 11.139 62.8609 10.7763L63.4034 7.77733C63.4394 7.5585 63.3668 7.33601 63.2089 7.18057L61.0078 5.04712C60.8238 4.86852 60.7598 4.60032 60.8439 4.35833C60.9256 4.11694 61.134 3.94078 61.3858 3.90116L64.4153 3.46167C64.6457 3.4379 64.848 3.2977 64.9517 3.09045L66.2866 0.353543C66.3183 0.292587 66.3591 0.236508 66.4085 0.188962L66.4634 0.146293C66.492 0.114597 66.5249 0.0883856 66.5615 0.0670512L66.6279 0.0426689L66.7316 0H66.9882C67.2174 0.0237727 67.4192 0.160923 67.5246 0.365734L68.8772 3.09045C68.9747 3.28977 69.1643 3.42814 69.3831 3.46167L72.4126 3.90116C72.6686 3.93773 72.8826 4.1145 72.9673 4.35833C73.0472 4.60276 72.9783 4.87096 72.7906 5.04712L70.5108 7.20495Z" fill="#05A42C"/>
</svg>
