<svg width="61" height="54" viewBox="0 0 61 54" fill="none" xmlns="http://www.w3.org/2000/svg">
<path d="M34.3125 17.8425C35.0258 17.0276 35.9051 16.3747 36.8914 15.9276C37.8777 15.4804 38.9483 15.2494 40.0312 15.25V26.6875C40.0343 27.6977 40.4369 28.6657 41.1512 29.38C41.8656 30.0943 42.8335 30.497 43.8438 30.5H59.0938V40.0313C59.0938 42.0535 58.2904 43.993 56.8604 45.4229C55.4305 46.8529 53.491 47.6562 51.4688 47.6562H5.71875C4.70854 47.6532 3.74057 47.2506 3.02624 46.5363C2.31191 45.8219 1.90927 44.854 1.90625 43.8438V38.125C1.90927 37.1148 2.31191 36.1468 3.02624 35.4325C3.74057 34.7182 4.70854 34.3155 5.71875 34.3125H24.7812C26.8035 34.3125 28.743 33.5092 30.1729 32.0792C31.6029 30.6492 32.4062 28.7098 32.4062 26.6875V22.875C32.4089 21.0216 33.0866 19.2326 34.3125 17.8425Z" fill="#C3BEC6"/>
<path d="M59.0938 22.875V30.5H43.8438C42.8335 30.497 41.8656 30.0943 41.1512 29.38C40.4369 28.6657 40.0343 27.6977 40.0312 26.6875V15.25H51.4688C53.491 15.25 55.4305 16.0533 56.8604 17.4833C58.2904 18.9133 59.0938 20.8527 59.0938 22.875Z" fill="#BDEFFC"/>
<path d="M51.4688 24.7812C49.4483 24.7752 47.5124 23.9699 46.0837 22.5413C44.6551 21.1126 43.8498 19.1767 43.8438 17.1562V15.25H40.0312V26.6875C40.0343 27.6977 40.4369 28.6657 41.1512 29.38C41.8656 30.0943 42.8335 30.497 43.8438 30.5H59.0938V24.7812H51.4688Z" fill="#9DDCED"/>
<path d="M34.3125 7.625V17.8425C33.0866 19.2326 32.4089 21.0216 32.4062 22.875V26.6875C32.4062 28.7098 31.6029 30.6492 30.1729 32.0792C28.743 33.5092 26.8035 34.3125 24.7812 34.3125H11.4375C9.4446 34.313 7.53071 33.5333 6.10557 32.1402C4.68044 30.7471 3.85734 28.8515 3.8125 26.8591V9.53125C3.8125 7.50897 4.61585 5.56953 6.04581 4.13956C7.47578 2.7096 9.41522 1.90625 11.4375 1.90625H28.5938C30.1105 1.90625 31.565 2.50876 32.6375 3.58123C33.71 4.65371 34.3125 6.10829 34.3125 7.625Z" fill="#D1945C"/>
<path d="M30.5 24.7813H20.9688C17.9381 24.7722 15.0342 23.5643 12.8912 21.4213C10.7482 19.2783 9.5403 16.3744 9.53125 13.3438V2.17505C7.89713 2.59325 6.44845 3.54293 5.41318 4.87464C4.3779 6.20635 3.81481 7.84449 3.8125 9.53127V26.8591C3.81301 28.8357 4.59844 30.7312 5.99612 32.1289C7.3938 33.5266 9.28932 34.312 11.2659 34.3125H24.7812C26.8035 34.3125 28.743 33.5092 30.1729 32.0792C31.6029 30.6492 32.4062 28.7098 32.4062 26.6875V24.5125C31.7848 24.6827 31.1443 24.773 30.5 24.7813Z" fill="#C9874B"/>
<path d="M24.7812 1.90625H13.3438V11.4375H24.7812V1.90625Z" fill="#BDEFFC"/>
<path d="M17.1562 1.90625H13.3438V11.4375H17.1562V1.90625Z" fill="#9DDCED"/>
<path d="M40.0312 51.4688C42.1368 51.4688 43.8438 49.7618 43.8438 47.6562C43.8438 45.5507 42.1368 43.8438 40.0312 43.8438C37.9257 43.8438 36.2188 45.5507 36.2188 47.6562C36.2188 49.7618 37.9257 51.4688 40.0312 51.4688Z" fill="#655E66"/>
<path d="M13.3438 51.4688C15.4493 51.4688 17.1562 49.7618 17.1562 47.6562C17.1562 45.5507 15.4493 43.8438 13.3438 43.8438C11.2382 43.8438 9.53125 45.5507 9.53125 47.6562C9.53125 49.7618 11.2382 51.4688 13.3438 51.4688Z" fill="#655E66"/>
<path d="M5.71875 34.3125H28.5938C28.5938 35.8292 27.9912 37.2838 26.9188 38.3563C25.8463 39.4287 24.3917 40.0312 22.875 40.0312H1.90625V38.125C1.90625 37.1139 2.30792 36.1441 3.02291 35.4292C3.73789 34.7142 4.70761 34.3125 5.71875 34.3125Z" fill="#AC9FB5"/>
<path d="M51.4688 13.3438H40.0312C37.5043 13.3468 35.0818 14.352 33.295 16.1388C31.5082 17.9256 30.503 20.3481 30.5 22.875V26.6875C30.5 28.2042 29.8975 29.6588 28.825 30.7313C27.7525 31.8038 26.298 32.4063 24.7812 32.4063H11.4375C9.92079 32.4063 8.46621 31.8038 7.39373 30.7313C6.32126 29.6588 5.71875 28.2042 5.71875 26.6875V9.53128C5.71875 8.01457 6.32126 6.55999 7.39373 5.48751C8.46621 4.41504 9.92079 3.81253 11.4375 3.81253V11.4375C11.4375 11.9431 11.6383 12.428 11.9958 12.7855C12.3533 13.1429 12.8382 13.3438 13.3438 13.3438H24.7812C25.2868 13.3438 25.7717 13.1429 26.1292 12.7855C26.4867 12.428 26.6875 11.9431 26.6875 11.4375V3.81253C28.0763 3.80244 29.4207 4.30093 30.4672 5.21397C31.5137 6.12701 32.1898 7.39147 32.3681 8.76878C32.3694 9.01911 32.4199 9.26675 32.5169 9.49754C32.6138 9.72834 32.7553 9.93778 32.9332 10.1139C33.1111 10.29 33.3219 10.4294 33.5537 10.524C33.7854 10.6187 34.0336 10.6667 34.2839 10.6655C34.5342 10.6642 34.7819 10.6137 35.0127 10.5167C35.2435 10.4198 35.4529 10.2783 35.629 10.1004C35.8052 9.92253 35.9445 9.71169 36.0392 9.47993C36.1338 9.24818 36.1819 9.00005 36.1806 8.74972C36.1841 8.68622 36.1841 8.62258 36.1806 8.55909C35.9426 6.20873 34.8391 4.03086 33.0846 2.44895C31.33 0.867045 29.0499 -0.00583727 26.6875 2.93812e-05H11.4375C8.91058 0.00305623 6.48803 1.00821 4.70123 2.79501C2.91443 4.58181 1.90928 7.00436 1.90625 9.53128V26.9029C1.95736 29.0152 2.71209 31.0499 4.05078 32.6846C2.88234 33.0387 1.85829 33.7582 1.12915 34.7375C0.400005 35.7168 0.00423306 36.9041 0 38.125L0 43.8438C0 45.3605 0.602509 46.8151 1.67498 47.8876C2.74746 48.96 4.20204 49.5625 5.71875 49.5625H7.97575C8.42543 50.8344 9.31026 51.9064 10.4739 52.589C11.6374 53.2715 13.0049 53.5208 14.3345 53.2927C15.6641 53.0645 16.8702 52.3737 17.7398 51.3423C18.6093 50.3109 19.0862 49.0053 19.0862 47.6563C19.0862 46.3073 18.6093 45.0017 17.7398 43.9702C16.8702 42.9388 15.6641 42.248 14.3345 42.0199C13.0049 41.7918 11.6374 42.041 10.4739 42.7236C9.31026 43.4062 8.42543 44.4782 7.97575 45.75H5.71875C5.21318 45.75 4.72832 45.5492 4.37083 45.1917C4.01334 44.8342 3.8125 44.3493 3.8125 43.8438V38.125C3.8125 37.6195 4.01334 37.1346 4.37083 36.7771C4.72832 36.4196 5.21318 36.2188 5.71875 36.2188H24.7812C27.3082 36.2158 29.7307 35.2106 31.5175 33.4238C33.3043 31.637 34.3095 29.2144 34.3125 26.6875V22.875C34.3178 21.6968 34.6869 20.549 35.3693 19.5884C36.0517 18.6279 37.0141 17.9017 38.125 17.5089V26.6875C38.125 28.2042 38.7275 29.6588 39.8 30.7313C40.8725 31.8038 42.327 32.4063 43.8438 32.4063H57.1875V40.0313C57.1875 41.548 56.585 43.0026 55.5125 44.0751C54.44 45.1475 52.9855 45.75 51.4688 45.75C50.9632 45.75 50.4783 45.9509 50.1208 46.3084C49.7633 46.6658 49.5625 47.1507 49.5625 47.6563C49.5625 48.1618 49.7633 48.6467 50.1208 49.0042C50.4783 49.3617 50.9632 49.5625 51.4688 49.5625C53.9957 49.5595 56.4182 48.5544 58.205 46.7676C59.9918 44.9808 60.997 42.5582 61 40.0313V22.875C60.997 20.3481 59.9918 17.9256 58.205 16.1388C56.4182 14.352 53.9957 13.3468 51.4688 13.3438ZM22.875 9.53128H15.25V3.81253H22.875V9.53128ZM13.3438 45.75C13.7208 45.75 14.0893 45.8618 14.4028 46.0713C14.7163 46.2808 14.9606 46.5785 15.1049 46.9268C15.2492 47.2751 15.2869 47.6584 15.2134 48.0282C15.1398 48.3979 14.9583 48.7376 14.6917 49.0042C14.4251 49.2708 14.0854 49.4524 13.7156 49.5259C13.3459 49.5995 12.9626 49.5617 12.6143 49.4174C12.2659 49.2731 11.9682 49.0288 11.7588 48.7153C11.5493 48.4019 11.4375 48.0333 11.4375 47.6563C11.4375 47.1507 11.6383 46.6658 11.9958 46.3084C12.3533 45.9509 12.8382 45.75 13.3438 45.75ZM43.8438 28.5938C43.3382 28.5938 42.8533 28.3929 42.4958 28.0355C42.1383 27.678 41.9375 27.1931 41.9375 26.6875V17.1563H51.4688C52.9855 17.1563 54.44 17.7588 55.5125 18.8313C56.585 19.9037 57.1875 21.3583 57.1875 22.875V28.5938H43.8438Z" fill="black"/>
<path d="M45.75 47.6563C45.75 46.5252 45.4146 45.4195 44.7862 44.4791C44.1578 43.5386 43.2647 42.8057 42.2197 42.3728C41.1748 41.94 40.0249 41.8267 38.9156 42.0474C37.8062 42.268 36.7873 42.8127 35.9875 43.6125C35.1877 44.4123 34.643 45.4312 34.4224 46.5406C34.2017 47.6499 34.315 48.7998 34.7478 49.8447C35.1807 50.8897 35.9136 51.7828 36.8541 52.4112C37.7945 53.0396 38.9002 53.375 40.0312 53.375C41.548 53.375 43.0025 52.7725 44.075 51.7C45.1475 50.6275 45.75 49.173 45.75 47.6563ZM38.125 47.6563C38.125 47.2792 38.2368 46.9107 38.4463 46.5972C38.6557 46.2837 38.9534 46.0394 39.3018 45.8951C39.6501 45.7508 40.0334 45.7131 40.4031 45.7866C40.7729 45.8602 41.1126 46.0417 41.3792 46.3083C41.6458 46.5749 41.8273 46.9146 41.9009 47.2844C41.9744 47.6541 41.9367 48.0374 41.7924 48.3857C41.6481 48.7341 41.4038 49.0318 41.0903 49.2412C40.7768 49.4507 40.4083 49.5625 40.0312 49.5625C39.5257 49.5625 39.0408 49.3617 38.6833 49.0042C38.3258 48.6467 38.125 48.1618 38.125 47.6563ZM24.7812 49.5625H28.5938C29.0993 49.5625 29.5842 49.3617 29.9417 49.0042C30.2992 48.6467 30.5 48.1618 30.5 47.6563C30.5 47.1507 30.2992 46.6658 29.9417 46.3083C29.5842 45.9508 29.0993 45.75 28.5938 45.75H24.7812C24.2757 45.75 23.7908 45.9508 23.4333 46.3083C23.0758 46.6658 22.875 47.1507 22.875 47.6563C22.875 48.1618 23.0758 48.6467 23.4333 49.0042C23.7908 49.3617 24.2757 49.5625 24.7812 49.5625Z" fill="black"/>
</svg>
