<svg width="50" height="50" viewBox="0 0 50 50" fill="none" xmlns="http://www.w3.org/2000/svg">
<path d="M32.0376 49.9995C30.5077 49.9254 28.9967 49.6305 27.5515 49.1239C26.49 48.7457 25.3856 48.5006 24.2636 48.3942C23.1913 48.45 22.1281 48.6213 21.0926 48.905C18.9299 49.4304 16.4604 50.0287 14.1515 48.9926C11.8427 47.9564 10.6591 45.7236 9.63618 43.7534C9.18034 42.7818 8.6061 41.8701 7.92648 41.039C7.12295 40.2669 6.22436 39.6 5.25233 39.0543C3.3819 37.9014 1.27765 36.588 0.415496 34.3259C-0.446659 32.0639 0.196304 29.6706 0.868493 27.5837C1.23356 26.512 1.46425 25.3993 1.55529 24.2709C1.51501 23.1984 1.34325 22.1349 1.04385 21.1041C0.517786 18.9442 -0.0813389 16.4925 0.95617 14.1721C2.14895 12.1273 3.99713 10.5438 6.20217 9.67728C7.17585 9.21748 8.08879 8.63906 8.92015 7.95523C9.68858 7.15413 10.356 6.26216 10.9075 5.29918C12.0619 3.35823 13.3771 1.25674 15.6566 0.395718C17.9362 -0.465307 20.3035 0.249782 22.4078 0.92109C23.4688 1.30071 24.5734 1.54585 25.6956 1.65077C26.7693 1.59769 27.8333 1.42141 28.8666 1.1254C31.0293 0.614623 33.4989 0.0162836 35.8077 1.05243C37.8532 2.23002 39.4433 4.05964 40.3231 6.24777C40.7789 7.21942 41.3531 8.13113 42.0328 8.96219C42.8544 9.73836 43.7728 10.4054 44.7654 10.9469C46.6358 12.0998 48.74 13.4133 49.6022 15.6753C50.4643 17.9373 49.7483 20.3306 49.12 22.4321C48.7413 23.4922 48.4959 24.5952 48.3893 25.7157C48.4296 26.7882 48.6014 27.8517 48.9008 28.8825C49.4268 31.0424 50.026 33.4941 48.9885 35.8145C47.9509 38.1203 45.7152 39.3024 43.7425 40.3385C42.767 40.7974 41.8497 41.3706 41.0099 42.046C40.2427 42.8714 39.5802 43.788 39.0371 44.775C37.8827 46.643 36.5676 48.7445 34.3026 49.6055C33.5785 49.8755 32.8105 50.0091 32.0376 49.9995ZM24.1321 44.702H24.3659C25.8107 44.8077 27.2354 45.102 28.6036 45.5776C29.9867 46.196 31.5201 46.3989 33.0167 46.1614C34.1272 45.7528 35.004 44.3226 35.9392 42.8195C36.6515 41.562 37.5206 40.3998 38.5257 39.3608C39.598 38.4556 40.7814 37.6905 42.0474 37.0841C43.5117 36.5383 44.7754 35.5612 45.6713 34.2822C46.0367 32.7638 45.9296 31.1703 45.3645 29.7144C44.9684 28.3816 44.7474 27.0031 44.7069 25.6135C44.8127 24.1706 45.1074 22.7478 45.5837 21.3814C46.2029 20.0001 46.406 18.4687 46.1682 16.9741C45.7444 15.865 44.327 14.9894 42.8218 14.0554C41.5627 13.344 40.3991 12.4761 39.3586 11.4723C38.4625 10.3998 37.7063 9.21796 37.1082 7.95523C36.5569 6.49555 35.5795 5.23475 34.3026 4.336C32.7833 3.97206 31.1894 4.07378 29.7288 4.62788C28.3895 5.04768 26.9969 5.27375 25.5934 5.29918C24.1371 5.17929 22.7027 4.87022 21.3264 4.37978C19.9488 3.77781 18.4253 3.59016 16.9426 3.83982C15.832 4.26303 14.9552 5.67862 14.02 7.18176C13.3057 8.42898 12.4366 9.58124 11.4335 10.6113C10.3612 11.5165 9.17782 12.2815 7.91186 12.8879C6.45027 13.4385 5.18781 14.4147 4.28789 15.6899C3.92347 17.2072 4.02532 18.799 4.58014 20.2577C4.99242 21.5971 5.2186 22.9868 5.25233 24.3877C5.13228 25.8421 4.8228 27.2746 4.33173 28.649C3.72896 30.0248 3.54106 31.5463 3.79105 33.0271C4.21483 34.1362 5.63227 35.0118 7.13739 35.9458C8.39649 36.6572 9.56018 37.5252 10.6006 38.5289C11.4967 39.6015 12.2529 40.7833 12.851 42.046C13.4024 43.5057 14.3798 44.7665 15.6566 45.6652C17.1776 46.0227 18.771 45.9159 20.2305 45.3587C21.5006 44.9874 22.8102 44.767 24.1321 44.702Z" fill="#05A42C"/>
<path d="M21.3967 33.8105C21.0938 33.8141 20.7932 33.7584 20.5122 33.6465C20.2312 33.5346 19.9754 33.3688 19.7594 33.1586L12.9843 26.5837C12.7643 26.3709 12.5889 26.1174 12.4679 25.8374C12.347 25.5575 12.2829 25.2568 12.2794 24.9524C12.276 24.648 12.3331 24.3459 12.4475 24.0633C12.562 23.7808 12.7316 23.5233 12.9466 23.3056C13.1616 23.0879 13.4179 22.9143 13.7007 22.7946C13.9835 22.6749 14.2874 22.6115 14.595 22.6081C14.9025 22.6046 15.2078 22.6611 15.4933 22.7744C15.7788 22.8877 16.039 23.0556 16.2589 23.2684L21.4155 28.2601L33.7049 16.6748C33.9247 16.4464 34.1892 16.2645 34.4823 16.1403C34.7754 16.0162 35.0909 15.9522 35.4097 15.9524C35.7285 15.9526 36.0439 16.0169 36.3368 16.1414C36.6297 16.2659 36.894 16.4481 37.1136 16.6768C37.3332 16.9055 37.5036 17.176 37.6143 17.4719C37.725 17.7677 37.7739 18.0828 37.7578 18.3979C37.7417 18.713 37.6611 19.0216 37.5209 19.3049C37.3806 19.5883 37.1836 19.8404 36.9419 20.0461L23.0152 33.0841C22.8071 33.3048 22.557 33.4825 22.2792 33.6072C22.0015 33.7318 21.7016 33.8009 21.3967 33.8105Z" fill="#05A42C"/>
</svg>
