<svg width="31" height="31" viewBox="0 0 31 31" fill="none" xmlns="http://www.w3.org/2000/svg">
<path d="M19.809 10.7563C19.3135 10.7563 18.9082 11.1617 18.9082 11.6571C18.9082 12.1615 19.3135 12.5669 19.809 12.5669C20.3134 12.5669 20.7187 12.1615 20.7187 11.6571C20.7097 11.1617 20.3044 10.7563 19.809 10.7563Z" fill="#046D1E"/>
<path d="M15.7824 11.9185C13.6836 11.9185 11.9812 13.6209 11.9812 15.7196C11.9812 17.8184 13.6836 19.5208 15.7824 19.5208C17.8811 19.5208 19.5836 17.8184 19.5836 15.7196C19.5836 13.6209 17.8811 11.9185 15.7824 11.9185ZM15.7824 18.1607C14.4403 18.1607 13.3503 17.0708 13.3503 15.7286C13.3503 14.3865 14.4403 13.2966 15.7824 13.2966C17.1245 13.2966 18.2144 14.3865 18.2144 15.7286C18.2144 17.0708 17.1245 18.1607 15.7824 18.1607Z" fill="#046D1E"/>
<path d="M18.8 23.4389H12.6389C10.0807 23.4389 8 21.3582 8 18.8V12.6389C8 10.0807 10.0807 8 12.6389 8H18.8C21.3582 8 23.4389 10.0807 23.4389 12.6389V18.8C23.4389 21.3582 21.3582 23.4389 18.8 23.4389ZM12.6389 9.45021C10.8824 9.45021 9.45021 10.8824 9.45021 12.6389V18.8C9.45021 20.5565 10.8824 21.9887 12.6389 21.9887H18.8C20.5565 21.9887 21.9887 20.5565 21.9887 18.8V12.6389C21.9887 10.8824 20.5565 9.45021 18.8 9.45021H12.6389Z" fill="#046D1E"/>
<rect x="0.5" y="0.5" width="30" height="30" rx="4.5" stroke="#046D1E"/>
</svg>
