<svg width="50" height="50" viewBox="0 0 50 50" fill="none" xmlns="http://www.w3.org/2000/svg">
<path d="M27.397 32.2157C27.7164 32.2157 28.0228 32.0896 28.2486 31.8653C28.4745 31.641 28.6014 31.3368 28.6014 31.0196V28.6274C28.6014 28.3102 28.4745 28.006 28.2486 27.7817C28.0228 27.5574 27.7164 27.4313 27.397 27.4313C27.0776 27.4313 26.7713 27.5574 26.5454 27.7817C26.3196 28.006 26.1927 28.3102 26.1927 28.6274V31.0196C26.1927 31.3368 26.3196 31.641 26.5454 31.8653C26.7713 32.0896 27.0776 32.2157 27.397 32.2157ZM22.5797 32.2157C22.8991 32.2157 23.2054 32.0896 23.4313 31.8653C23.6572 31.641 23.784 31.3368 23.784 31.0196V28.6274C23.784 28.3102 23.6572 28.006 23.4313 27.7817C23.2054 27.5574 22.8991 27.4313 22.5797 27.4313C22.2603 27.4313 21.954 27.5574 21.7281 27.7817C21.5023 28.006 21.3754 28.3102 21.3754 28.6274V31.0196C21.3754 31.3368 21.5023 31.641 21.7281 31.8653C21.954 32.0896 22.2603 32.2157 22.5797 32.2157ZM33.4187 17.8627H31.7567L29.6732 13.7363C29.6095 13.5844 29.515 13.4473 29.3956 13.3334C29.2761 13.2194 29.1343 13.1312 28.979 13.0742C28.8236 13.0172 28.6581 12.9926 28.4928 13.0019C28.3274 13.0113 28.1658 13.0545 28.018 13.1287C27.8702 13.2029 27.7394 13.3066 27.6338 13.4333C27.5282 13.56 27.45 13.7069 27.4042 13.865C27.3583 14.023 27.3458 14.1888 27.3674 14.3518C27.3889 14.5149 27.4441 14.6718 27.5295 14.8127L29.059 17.8627H20.9177L22.4472 14.8127C22.5641 14.5339 22.5705 14.2216 22.4651 13.9383C22.3597 13.655 22.1502 13.4218 21.8789 13.2856C21.6075 13.1493 21.2943 13.12 21.002 13.2036C20.7098 13.2872 20.4603 13.4775 20.3035 13.7363L18.22 17.8627H16.5581C15.7068 17.8756 14.8875 18.1866 14.2446 18.7408C13.6017 19.2951 13.1765 20.057 13.044 20.8922C12.9115 21.7274 13.0803 22.5822 13.5205 23.3059C13.9607 24.0296 14.644 24.5757 15.4501 24.8478L16.3413 33.7705C16.4311 34.6587 16.8511 35.4817 17.5192 36.0789C18.1873 36.676 19.0555 37.0044 19.9543 37H30.0466C30.9453 37.0044 31.8135 36.676 32.4816 36.0789C33.1497 35.4817 33.5697 34.6587 33.6595 33.7705L34.5507 24.8478C35.3585 24.5749 36.043 24.0268 36.4829 23.3007C36.9227 22.5746 37.0897 21.7173 36.9541 20.8806C36.8185 20.044 36.3891 19.282 35.742 18.7296C35.0949 18.1773 34.2719 17.8702 33.4187 17.8627ZM31.2388 33.5313C31.2089 33.8274 31.0689 34.1017 30.8462 34.3008C30.6235 34.4998 30.3341 34.6093 30.0345 34.6078H19.9422C19.6426 34.6093 19.3532 34.4998 19.1305 34.3008C18.9078 34.1017 18.7678 33.8274 18.7379 33.5313L17.8828 25.0392H32.0939L31.2388 33.5313ZM33.4187 22.647H16.5581C16.2386 22.647 15.9323 22.521 15.7065 22.2967C15.4806 22.0724 15.3537 21.7682 15.3537 21.451C15.3537 21.1337 15.4806 20.8295 15.7065 20.6052C15.9323 20.3809 16.2386 20.2549 16.5581 20.2549H33.4187C33.7381 20.2549 34.0444 20.3809 34.2703 20.6052C34.4961 20.8295 34.623 21.1337 34.623 21.451C34.623 21.7682 34.4961 22.0724 34.2703 22.2967C34.0444 22.521 33.7381 22.647 33.4187 22.647Z" fill="#030C0C"/>
<circle cx="39.5" cy="13.5" r="8.5" fill="#FF5B5B"/>
<path d="M37.08 9.228V14.28H38.376C38.604 13.632 39.144 13.188 39.948 13.188C41.088 13.188 41.652 13.836 41.652 14.976C41.652 16.056 41.124 16.86 39.948 16.86C39.024 16.86 38.4 16.38 38.22 15.636H36.888C37.092 17.004 38.136 18 39.936 18C41.964 18 42.96 16.68 42.96 14.94C42.96 13.62 42.3 12.024 40.152 12.024C39.372 12.024 38.664 12.384 38.34 12.816V10.428H42.36V9.228H37.08Z" fill="#FBFBFB"/>
</svg>
