<svg width="15" height="13" viewBox="0 0 15 13" fill="currentColor" xmlns="http://www.w3.org/2000/svg">
<path d="M0 6.13631C0 5.79238 0.255576 5.50815 0.587168 5.46316L0.679352 5.45696L12.6215 5.4575L8.30713 1.1608C8.04126 0.896067 8.04033 0.465926 8.30506 0.200051C8.54573 -0.0416527 8.9231 -0.0643911 9.18947 0.132369L9.26581 0.197983L14.7459 5.65454C14.781 5.68944 14.8114 5.7272 14.8372 5.76709C14.8445 5.77909 14.852 5.79137 14.859 5.8039C14.8655 5.81464 14.8713 5.82579 14.8769 5.83706C14.8845 5.85347 14.892 5.87042 14.8988 5.88771C14.9044 5.90104 14.909 5.91401 14.9132 5.92708C14.9182 5.94329 14.923 5.96056 14.9272 5.9781C14.9303 5.99034 14.9328 6.00212 14.935 6.01395C14.938 6.03155 14.9405 6.04977 14.9424 6.0682C14.944 6.08225 14.9449 6.09618 14.9454 6.11012C14.9456 6.11857 14.9458 6.12742 14.9458 6.13631L14.9454 6.16263C14.9449 6.17596 14.944 6.18928 14.9427 6.20257L14.9458 6.13631C14.9458 6.17918 14.9418 6.22113 14.9342 6.26179C14.9324 6.27151 14.9303 6.28148 14.928 6.29141C14.9232 6.31186 14.9176 6.33155 14.9112 6.35086C14.908 6.36045 14.9044 6.3707 14.9004 6.38087C14.8925 6.40131 14.8839 6.4208 14.8744 6.43978C14.87 6.44871 14.865 6.45805 14.8598 6.4673C14.8514 6.48239 14.8426 6.49673 14.8334 6.5107C14.8268 6.5206 14.8196 6.53089 14.8121 6.54103L14.8062 6.54886C14.7879 6.57277 14.768 6.59543 14.7468 6.61669L14.746 6.61732L9.26585 12.0748C9 12.3395 8.56986 12.3386 8.3051 12.0728C8.06442 11.8311 8.04327 11.4536 8.24116 11.1881L8.30709 11.112L12.6196 6.81621L0.679352 6.81566C0.304156 6.81566 0 6.51151 0 6.13631Z" fill="currentColor"/>
</svg>
