<svg width="40" height="40" viewBox="0 0 40 40" fill="none" xmlns="http://www.w3.org/2000/svg">
<circle r="19.5" transform="matrix(-1 0 0 1 20 20)" fill="white" stroke="#05A42C"/>
<path d="M28 20.1364C28 19.7924 27.7444 19.5082 27.4128 19.4632L27.3206 19.457L15.3785 19.4576L19.6929 15.1609C19.9587 14.8961 19.9597 14.466 19.6949 14.2001C19.4543 13.9584 19.0769 13.9357 18.8105 14.1324L18.7342 14.198L13.2541 19.6546C13.219 19.6895 13.1886 19.7273 13.1628 19.7671C13.1555 19.7792 13.148 19.7914 13.141 19.804C13.1345 19.8147 13.1287 19.8259 13.1231 19.8371C13.1155 19.8535 13.108 19.8705 13.1012 19.8878C13.0956 19.9011 13.091 19.9141 13.0868 19.9271C13.0818 19.9433 13.077 19.9606 13.0728 19.9782C13.0697 19.9904 13.0672 20.0022 13.065 20.014C13.062 20.0316 13.0595 20.0498 13.0576 20.0683C13.056 20.0823 13.0551 20.0962 13.0546 20.1102C13.0544 20.1186 13.0542 20.1275 13.0542 20.1364L13.0546 20.1627C13.0551 20.176 13.056 20.1893 13.0573 20.2026L13.0542 20.1364C13.0542 20.1792 13.0582 20.2212 13.0658 20.2619C13.0676 20.2716 13.0697 20.2815 13.072 20.2915C13.0768 20.3119 13.0824 20.3316 13.0888 20.3509C13.092 20.3605 13.0956 20.3708 13.0996 20.3809C13.1075 20.4014 13.1161 20.4209 13.1256 20.4398C13.13 20.4488 13.135 20.4581 13.1402 20.4674C13.1486 20.4824 13.1574 20.4968 13.1666 20.5108C13.1732 20.5207 13.1804 20.531 13.1879 20.5411L13.1938 20.5489C13.2121 20.5728 13.232 20.5955 13.2532 20.6167L13.254 20.6174L18.7341 26.0748C19 26.3396 19.4301 26.3387 19.6949 26.0729C19.9356 25.8312 19.9567 25.4537 19.7588 25.1882L19.6929 25.1121L15.3804 20.8163L27.3206 20.8157C27.6958 20.8157 28 20.5116 28 20.1364Z" fill="#05A42C"/>
</svg>
