<svg width="38" height="51" viewBox="0 0 38 51" fill="none" xmlns="http://www.w3.org/2000/svg">
<path d="M8.95353 20.776L9.29331 21.0309C9.57395 21.2263 9.78363 21.5074 9.89085 21.8321C9.99806 22.1569 9.99704 22.5076 9.88792 22.8317L9.75201 23.2394C9.43572 24.2455 9.44487 25.3257 9.77813 26.3262C10.1114 27.3268 10.7518 28.1967 11.6082 28.8122C12.4646 29.4276 13.4933 29.7573 14.5479 29.7541C15.6025 29.751 16.6292 29.4153 17.4819 28.7947L17.8217 28.5569C18.0958 28.3502 18.4297 28.2384 18.773 28.2384C19.1164 28.2384 19.4503 28.3502 19.7244 28.5569L20.0642 28.7947C20.9296 29.369 21.9498 29.6651 22.9883 29.6435C24.0267 29.6219 25.0337 29.2835 25.8744 28.6737C26.7152 28.064 27.3496 27.2118 27.6927 26.2315C28.0358 25.2512 28.0711 24.1894 27.7941 23.1884L27.6582 22.7807C27.5491 22.4566 27.548 22.1059 27.6552 21.7812C27.7625 21.4565 27.9721 21.1753 28.2528 20.9799L28.5926 20.7251C29.3869 20.0689 29.9637 19.1873 30.2469 18.1967C30.5301 17.206 30.5064 16.1528 30.1789 15.1759C29.8514 14.1991 29.2356 13.3443 28.4125 12.7245C27.5895 12.1047 26.5979 11.7489 25.5686 11.704H25.1438C24.8064 11.6903 24.4807 11.5763 24.2084 11.3766C23.936 11.1768 23.7294 10.9005 23.6149 10.5828L23.5469 10.1071C23.1832 9.13452 22.5312 8.29622 21.6781 7.70439C20.8249 7.11255 19.8114 6.79541 18.773 6.79541C17.7347 6.79541 16.7212 7.11255 15.868 7.70439C15.0149 8.29622 14.3628 9.13452 13.9992 10.1071L13.8633 10.5148C13.7487 10.8325 13.5421 11.1089 13.2698 11.3086C12.9974 11.5083 12.6717 11.6223 12.3343 11.6361H11.9775C10.9418 11.6823 9.94468 12.0432 9.11941 12.6709C8.29413 13.2985 7.67989 14.1629 7.35867 15.1487C7.03746 16.1345 7.02454 17.1948 7.32164 18.1881C7.61875 19.1815 8.21174 20.0606 9.02149 20.7081L8.95353 20.776ZM10.3636 16.2231C10.4637 15.8797 10.6786 15.5811 10.9723 15.377C11.266 15.173 11.6208 15.0758 11.9775 15.1018H12.4023C13.4509 15.0953 14.472 14.7656 15.3263 14.1575C16.1806 13.5495 16.8266 12.6927 17.1761 11.704L17.295 11.3133C17.4302 11.0167 17.6478 10.7652 17.9219 10.5889C18.196 10.4125 18.5151 10.3188 18.841 10.3188C19.1669 10.3188 19.486 10.4125 19.7601 10.5889C20.0342 10.7652 20.2518 11.0167 20.387 11.3133L20.5059 11.704C20.8412 12.7086 21.481 13.5837 22.3366 14.2079C23.1921 14.832 24.2208 15.1741 25.2798 15.1867H25.5686C25.9103 15.1854 26.2436 15.2926 26.5204 15.4929C26.7973 15.6931 27.0035 15.9761 27.1093 16.301C27.2151 16.6259 27.215 16.976 27.1091 17.3009C27.0032 17.6258 26.7969 17.9087 26.5199 18.1088L26.1802 18.3636C25.3197 18.9828 24.6793 19.8604 24.3524 20.8688C24.0254 21.8772 24.0289 22.9637 24.3624 23.9699L24.4983 24.3777C24.5587 24.6953 24.5273 25.0235 24.4077 25.3238C24.288 25.6242 24.0852 25.8842 23.823 26.0733C23.5608 26.2623 23.25 26.3727 22.9273 26.3913C22.6045 26.41 22.2832 26.3361 22.0009 26.1785L21.6611 25.9406C20.798 25.3261 19.7647 24.9958 18.7051 24.9958C17.6455 24.9958 16.6122 25.3261 15.749 25.9406L15.4093 26.1785C15.127 26.3361 14.8057 26.41 14.4829 26.3913C14.1602 26.3727 13.8494 26.2623 13.5872 26.0733C13.325 25.8842 13.1221 25.6242 13.0025 25.3238C12.8829 25.0235 12.8515 24.6953 12.9119 24.3777L13.0478 23.9699C13.3813 22.9637 13.3848 21.8772 13.0578 20.8688C12.7309 19.8604 12.0905 18.9828 11.23 18.3636L10.8903 18.1088C10.6008 17.9015 10.3908 17.6015 10.2951 17.2586C10.1993 16.9157 10.2235 16.5504 10.3636 16.2231Z" fill="#05A42C"/>
<path d="M37.6878 18.7213C37.6933 15.6696 36.9513 12.6629 35.5267 9.96409C34.1021 7.26525 32.0383 4.95636 29.5155 3.23917C26.9927 1.52198 24.0878 0.448754 21.0545 0.113268C18.0213 -0.222217 14.952 0.190249 12.1149 1.31462C9.27788 2.439 6.75934 4.24107 4.77941 6.56336C2.79947 8.88565 1.41839 11.6575 0.756856 14.6367C0.0953182 17.6159 0.173451 20.7117 0.984428 23.6537C1.7954 26.5958 3.31454 29.2944 5.4091 31.5139V49.3011C5.40933 49.5815 5.47896 49.8575 5.61179 50.1045C5.74461 50.3514 5.93649 50.5617 6.17032 50.7164C6.40415 50.8712 6.67265 50.9657 6.95187 50.9914C7.23109 51.0172 7.51234 50.9734 7.77054 50.8641L19.0001 46.0563L30.2297 50.8641C30.4392 50.9533 30.6645 50.9996 30.8923 51C31.2253 50.9974 31.5502 50.897 31.8267 50.7112C32.0604 50.5573 32.2524 50.3481 32.3858 50.1021C32.5192 49.8561 32.5897 49.5809 32.5911 49.3011V31.5139C35.8564 28.0539 37.6792 23.4788 37.6878 18.7213ZM19.0001 3.43142C22.0242 3.43142 24.9803 4.32816 27.4947 6.00824C30.0091 7.68831 31.9689 10.0763 33.1262 12.8701C34.2834 15.664 34.5862 18.7383 33.9962 21.7042C33.4063 24.6702 31.95 27.3946 29.8117 29.5329C27.6734 31.6712 24.949 33.1275 21.983 33.7174C19.0171 34.3074 15.9428 34.0046 13.1489 32.8474C10.3551 31.6901 7.96711 29.7303 6.28704 27.2159C4.60696 24.7015 3.71023 21.7454 3.71023 18.7213C3.71023 14.6662 5.32112 10.7771 8.18853 7.90973C11.0559 5.04232 14.945 3.43142 19.0001 3.43142ZM19.6627 42.6415C19.4531 42.5527 19.2278 42.507 19.0001 42.507C18.7725 42.507 18.5472 42.5527 18.3376 42.6415L8.80686 46.7188V34.368C11.8401 36.342 15.3812 37.3928 19.0001 37.3928C22.6191 37.3928 26.1602 36.342 29.1934 34.368V46.7188L19.6627 42.6415Z" fill="#05A42C"/>
</svg>
