<svg width="31" height="31" viewBox="0 0 31 31" fill="none" xmlns="http://www.w3.org/2000/svg">
<path fill-rule="evenodd" clip-rule="evenodd" d="M14.4487 18.4305C14.4392 18.4756 14.4203 18.5117 14.4108 18.5568C13.7956 20.8573 13.7293 21.3716 13.0951 22.4451C12.7922 22.9503 12.4515 23.4375 12.0729 23.8976C12.0256 23.9517 11.9877 24.0149 11.9025 23.9969C11.8079 23.9788 11.7984 23.8976 11.7889 23.8254C11.6848 23.1218 11.628 22.4271 11.6564 21.7144C11.6848 20.7942 11.8079 20.4784 13.0573 15.4895C13.0762 15.4173 13.0573 15.3541 13.0289 15.282C12.7355 14.5151 12.6692 13.7393 12.9342 12.9454C13.5021 11.2403 15.5182 11.114 15.8779 12.5213C16.0956 13.3874 15.5182 14.5242 15.0734 16.2112C14.7042 17.6005 16.4175 18.5839 17.8846 17.5735C19.2381 16.6442 19.7587 14.4069 19.6546 12.8191C19.4558 9.6615 15.8211 8.97585 13.5116 9.9953C10.8708 11.1591 10.265 14.2896 11.4576 15.715C11.6091 15.8954 11.7227 16.0037 11.6753 16.1931C11.5996 16.4818 11.5334 16.7705 11.4482 17.0502C11.3819 17.2577 11.2021 17.3389 10.9749 17.2487C10.53 17.0773 10.1704 16.8156 9.86747 16.4638C8.85468 15.2639 8.56126 12.9003 9.90533 10.8975C11.3914 8.67814 14.1552 7.77597 16.673 8.04662C19.683 8.3714 21.595 10.3381 21.9452 12.5574C22.1061 13.5679 21.9925 16.0759 20.497 17.8441C18.7743 19.874 15.9915 20.0093 14.7042 18.7643C14.6285 18.6651 14.5433 18.5478 14.4487 18.4305Z" fill="#046D1E"/>
<rect x="0.5" y="0.5" width="30" height="30" rx="4.5" stroke="#046D1E"/>
</svg>
