<svg width="80" height="80" viewBox="0 0 80 80" fill="none" xmlns="http://www.w3.org/2000/svg">
<g filter="url(#filter0_d_226_2067)">
<circle cx="40" cy="30" r="20" fill="#05A42C"/>
</g>
<path d="M33 30.1363C33 29.7924 33.2556 29.5081 33.5872 29.4632L33.6794 29.457L45.6215 29.4575L41.3071 25.1608C41.0413 24.8961 41.0403 24.4659 41.3051 24.2001C41.5457 23.9583 41.9231 23.9356 42.1895 24.1324L42.2658 24.198L47.7459 29.6545C47.781 29.6894 47.8114 29.7272 47.8372 29.7671C47.8445 29.7791 47.852 29.7914 47.859 29.8039C47.8655 29.8146 47.8713 29.8258 47.8769 29.8371C47.8845 29.8535 47.892 29.8704 47.8988 29.8877C47.9044 29.901 47.909 29.914 47.9132 29.9271C47.9182 29.9433 47.923 29.9606 47.9272 29.9781C47.9303 29.9903 47.9328 30.0021 47.935 30.014C47.938 30.0316 47.9405 30.0498 47.9424 30.0682C47.944 30.0823 47.9449 30.0962 47.9454 30.1101C47.9456 30.1186 47.9458 30.1274 47.9458 30.1363L47.9454 30.1626C47.9449 30.176 47.944 30.1893 47.9427 30.2026L47.9458 30.1363C47.9458 30.1792 47.9418 30.2211 47.9342 30.2618C47.9324 30.2715 47.9303 30.2815 47.928 30.2914C47.9232 30.3119 47.9176 30.3316 47.9112 30.3509C47.908 30.3604 47.9044 30.3707 47.9004 30.3809C47.8925 30.4013 47.8839 30.4208 47.8744 30.4398C47.87 30.4487 47.865 30.4581 47.8598 30.4673C47.8514 30.4824 47.8426 30.4967 47.8334 30.5107C47.8268 30.5206 47.8196 30.5309 47.8121 30.541L47.8062 30.5489C47.7879 30.5728 47.768 30.5954 47.7468 30.6167L47.746 30.6173L42.2659 36.0748C42 36.3395 41.5699 36.3386 41.3051 36.0728C41.0644 35.8311 41.0433 35.4536 41.2412 35.1881L41.3071 35.112L45.6196 30.8162L33.6794 30.8157C33.3042 30.8157 33 30.5115 33 30.1363Z" fill="white"/>
<defs>
<filter id="filter0_d_226_2067" x="0" y="0" width="80" height="80" filterUnits="userSpaceOnUse" color-interpolation-filters="sRGB">
<feFlood flood-opacity="0" result="BackgroundImageFix"/>
<feColorMatrix in="SourceAlpha" type="matrix" values="0 0 0 0 0 0 0 0 0 0 0 0 0 0 0 0 0 0 127 0" result="hardAlpha"/>
<feOffset dy="10"/>
<feGaussianBlur stdDeviation="10"/>
<feComposite in2="hardAlpha" operator="out"/>
<feColorMatrix type="matrix" values="0 0 0 0 0.0146006 0 0 0 0 0.329451 0 0 0 0 0.091828 0 0 0 0.2 0"/>
<feBlend mode="normal" in2="BackgroundImageFix" result="effect1_dropShadow_226_2067"/>
<feBlend mode="normal" in="SourceGraphic" in2="effect1_dropShadow_226_2067" result="shape"/>
</filter>
</defs>
</svg>
