<svg width="18" height="19" viewBox="0 0 18 19" fill="none" xmlns="http://www.w3.org/2000/svg">
<path d="M17.9867 7.77427C18.0733 7.32009 17.7269 6.77507 17.2939 6.77507L12.3577 6.04838L10.1061 1.32488C10.0195 1.14321 9.93293 1.05237 9.75973 0.961534C9.32673 0.689024 8.80714 0.870697 8.54734 1.32488L6.38234 6.04838L1.44615 6.77507C1.18635 6.77507 1.01315 6.8659 0.926548 7.04758C0.580148 7.41092 0.580148 7.95594 0.926548 8.31929L4.47714 11.9527L3.61114 17.1304C3.61114 17.3121 3.61114 17.4938 3.69774 17.6754C3.95754 18.1296 4.47714 18.3113 4.91014 18.0388L9.32673 15.5862L13.7433 18.0388C13.8299 18.1296 14.0031 18.1296 14.1763 18.1296C14.2629 18.1296 14.2629 18.1296 14.3495 18.1296C14.7825 18.0388 15.1289 17.5846 15.0423 17.0396L14.1763 11.8619L17.7269 8.22845C17.9001 8.13762 17.9867 7.95594 17.9867 7.77427Z" fill="#FF8A00"/>
</svg>
