<svg width="73" height="12" viewBox="0 0 73 12" fill="currentColor" xmlns="http://www.w3.org/2000/svg">
<path d="M9.70345 7.20495C9.54557 7.35795 9.47303 7.57922 9.509 7.79622L10.0509 10.7952C10.0966 11.0494 9.98933 11.3067 9.77659 11.4536C9.56812 11.6059 9.29078 11.6242 9.06341 11.5023L6.36369 10.0942C6.26982 10.0443 6.16558 10.0174 6.05891 10.0144H5.89372C5.83642 10.0229 5.78034 10.0412 5.72914 10.0693L3.02881 11.484C2.89532 11.5511 2.74415 11.5749 2.59602 11.5511C2.23517 11.4828 1.99439 11.139 2.05352 10.7763L2.59602 7.77733C2.63199 7.5585 2.55945 7.33601 2.40158 7.18057L0.200468 5.04712C0.0163823 4.86852 -0.0476211 4.60032 0.0364977 4.35833C0.118178 4.11694 0.326646 3.94078 0.578393 3.90116L3.60789 3.46167C3.8383 3.4379 4.04067 3.2977 4.1443 3.09045L5.47922 0.353543C5.51092 0.292587 5.55176 0.236508 5.60113 0.188962L5.65599 0.146293C5.68464 0.114597 5.71756 0.0883856 5.75413 0.0670512L5.82057 0.0426689L5.9242 0H6.18082C6.41002 0.0237727 6.61178 0.160923 6.71723 0.365734L8.06984 3.09045C8.16737 3.28977 8.35694 3.42814 8.57577 3.46167L11.6053 3.90116C11.8613 3.93773 12.0752 4.1145 12.16 4.35833C12.2398 4.60276 12.1709 4.87096 11.9832 5.04712L9.70345 7.20495Z" fill="currentColor"/>
<path d="M24.9051 7.20495C24.7472 7.35795 24.6747 7.57922 24.7107 7.79622L25.2526 10.7952C25.2983 11.0494 25.191 11.3067 24.9783 11.4536C24.7698 11.6059 24.4924 11.6242 24.2651 11.5023L21.5653 10.0942C21.4715 10.0443 21.3672 10.0174 21.2606 10.0144H21.0954C21.0381 10.0229 20.982 10.0412 20.9308 10.0693L18.2305 11.484C18.097 11.5511 17.9458 11.5749 17.7977 11.5511C17.4368 11.4828 17.1961 11.139 17.2552 10.7763L17.7977 7.77733C17.8336 7.5585 17.7611 7.33601 17.6032 7.18057L15.4021 5.04712C15.218 4.86852 15.154 4.60032 15.2382 4.35833C15.3198 4.11694 15.5283 3.94078 15.7801 3.90116L18.8095 3.46167C19.04 3.4379 19.2423 3.2977 19.346 3.09045L20.6809 0.353543C20.7126 0.292587 20.7534 0.236508 20.8028 0.188962L20.8577 0.146293C20.8863 0.114597 20.9192 0.0883856 20.9558 0.0670512L21.0222 0.0426689L21.1259 0H21.3825C21.6117 0.0237727 21.8134 0.160923 21.9189 0.365734L23.2715 3.09045C23.369 3.28977 23.5586 3.42814 23.7774 3.46167L26.8069 3.90116C27.0629 3.93773 27.2769 4.1145 27.3616 4.35833C27.4415 4.60276 27.3726 4.87096 27.1848 5.04712L24.9051 7.20495Z" fill="curentColor"/>
<path d="M40.1073 7.20495C39.9494 7.35795 39.8768 7.57922 39.9128 7.79622L40.4547 10.7952C40.5004 11.0494 40.3931 11.3067 40.1804 11.4536C39.9719 11.6059 39.6946 11.6242 39.4672 11.5023L36.7675 10.0942C36.6736 10.0443 36.5694 10.0174 36.4627 10.0144H36.2975C36.2402 10.0229 36.1842 10.0412 36.133 10.0693L33.4326 11.484C33.2991 11.5511 33.148 11.5749 32.9998 11.5511C32.639 11.4828 32.3982 11.139 32.4573 10.7763L32.9998 7.77733C33.0358 7.5585 32.9633 7.33601 32.8054 7.18057L30.6043 5.04712C30.4202 4.86852 30.3562 4.60032 30.4403 4.35833C30.522 4.11694 30.7305 3.94078 30.9822 3.90116L34.0117 3.46167C34.2421 3.4379 34.4445 3.2977 34.5481 3.09045L35.883 0.353543C35.9147 0.292587 35.9556 0.236508 36.0049 0.188962L36.0598 0.146293C36.0885 0.114597 36.1214 0.0883856 36.1579 0.0670512L36.2244 0.0426689L36.328 0H36.5846C36.8138 0.0237727 37.0156 0.160923 37.121 0.365734L38.4736 3.09045C38.5712 3.28977 38.7607 3.42814 38.9796 3.46167L42.0091 3.90116C42.2651 3.93773 42.479 4.1145 42.5638 4.35833C42.6436 4.60276 42.5747 4.87096 42.387 5.04712L40.1073 7.20495Z" fill="curentColor"/>
<path d="M55.3089 7.20495C55.151 7.35795 55.0785 7.57922 55.1145 7.79622L55.6564 10.7952C55.7021 11.0494 55.5948 11.3067 55.3821 11.4536C55.1736 11.6059 54.8962 11.6242 54.6689 11.5023L51.9692 10.0942C51.8753 10.0443 51.7711 10.0174 51.6644 10.0144H51.4992C51.4419 10.0229 51.3858 10.0412 51.3346 10.0693L48.6343 11.484C48.5008 11.5511 48.3496 11.5749 48.2015 11.5511C47.8406 11.4828 47.5999 11.139 47.659 10.7763L48.2015 7.77733C48.2375 7.5585 48.1649 7.33601 48.007 7.18057L45.8059 5.04712C45.6219 4.86852 45.5578 4.60032 45.642 4.35833C45.7236 4.11694 45.9321 3.94078 46.1839 3.90116L49.2134 3.46167C49.4438 3.4379 49.6461 3.2977 49.7498 3.09045L51.0847 0.353543C51.1164 0.292587 51.1572 0.236508 51.2066 0.188962L51.2615 0.146293C51.2901 0.114597 51.323 0.0883856 51.3596 0.0670512L51.426 0.0426689L51.5297 0H51.7863C52.0155 0.0237727 52.2172 0.160923 52.3227 0.365734L53.6753 3.09045C53.7728 3.28977 53.9624 3.42814 54.1812 3.46167L57.2107 3.90116C57.4667 3.93773 57.6807 4.1145 57.7654 4.35833C57.8453 4.60276 57.7764 4.87096 57.5887 5.04712L55.3089 7.20495Z" fill="curentColor"/>
<path d="M70.5106 7.20495C70.3527 7.35795 70.2802 7.57922 70.3161 7.79622L70.858 10.7952C70.9037 11.0494 70.7965 11.3067 70.5837 11.4536C70.3753 11.6059 70.0979 11.6242 69.8705 11.5023L67.1708 10.0942C67.0769 10.0443 66.9727 10.0174 66.866 10.0144H66.7009C66.6436 10.0229 66.5875 10.0412 66.5363 10.0693L63.8359 11.484C63.7024 11.5511 63.5513 11.5749 63.4032 11.5511C63.0423 11.4828 62.8015 11.139 62.8606 10.7763L63.4032 7.77733C63.4391 7.5585 63.3666 7.33601 63.2087 7.18057L61.0076 5.04712C60.8235 4.86852 60.7595 4.60032 60.8436 4.35833C60.9253 4.11694 61.1338 3.94078 61.3855 3.90116L64.415 3.46167C64.6454 3.4379 64.8478 3.2977 64.9514 3.09045L66.2864 0.353543C66.318 0.292587 66.3589 0.236508 66.4083 0.188962L66.4631 0.146293C66.4918 0.114597 66.5247 0.0883856 66.5613 0.0670512L66.6277 0.0426689L66.7313 0H66.988C67.2171 0.0237727 67.4189 0.160923 67.5244 0.365734L68.877 3.09045C68.9745 3.28977 69.1641 3.42814 69.3829 3.46167L72.4124 3.90116C72.6684 3.93773 72.8824 4.1145 72.9671 4.35833C73.0469 4.60276 72.9781 4.87096 72.7903 5.04712L70.5106 7.20495Z" fill="curentColor"/>
</svg>
