<svg width="31" height="31" viewBox="0 0 31 31" fill="none" xmlns="http://www.w3.org/2000/svg">
<path d="M22 14.1339C22 12.4018 20.6263 11 18.9288 11H11.0713C9.37375 11 8 12.4018 8 14.1339V17.8661C8 19.5982 9.37375 21 11.0713 21H18.9288C20.6263 21 22 19.5982 22 17.8661V14.1339ZM17.38 16.2768L13.8538 18.0536C13.7138 18.1339 13.25 18.0268 13.25 17.8661V14.2143C13.25 14.0536 13.7225 13.9464 13.8625 14.0268L17.2313 15.9018C17.3713 15.9911 17.52 16.1964 17.38 16.2768Z" fill="#046D1E"/>
<rect x="0.5" y="0.5" width="30" height="30" rx="4.5" stroke="#046D1E"/>
</svg>
